<svg width="16" height="16" viewBox="0 0 16 16" fill="none" xmlns="http://www.w3.org/2000/svg">
<path d="M10.6517 2.06283C10.4564 1.86757 10.1398 1.86757 9.94455 2.06283C9.74929 2.25809 9.74929 2.57467 9.94455 2.76994L13.4801 6.30547C13.6753 6.50073 13.9919 6.50073 14.1872 6.30547C14.3825 6.11021 14.3825 5.79362 14.1872 5.59836L10.6517 2.06283Z" fill="black"/>
<path d="M6.40902 10.5481C6.60428 10.3528 6.60428 10.0363 6.40902 9.841C6.21375 9.64574 5.89717 9.64574 5.70191 9.841L3.58059 11.9623C3.38533 12.1576 3.38533 12.4742 3.58059 12.6694C3.77585 12.8647 4.09243 12.8647 4.2877 12.6694L6.40902 10.5481Z" fill="black"/>
<path d="M10.2512 3.78367C9.89928 3.43178 9.34219 3.39218 8.94407 3.69078L6.59589 5.45191L5.14124 5.45191C4.24643 5.45191 3.80822 6.5331 4.43543 7.16031L9.08969 11.8146C9.7169 12.4418 10.7981 12.0036 10.7981 11.1088V9.65411L12.5592 7.30593C12.8578 6.90781 12.8182 6.35072 12.4663 5.99883L10.2512 3.78367Z" fill="black"/>
</svg>
